{
	"asset":{
		"generator":"Khronos glTF Blender I/O v4.0.44",
		"version":"2.0"
	},
	"scene":0,
	"scenes":[
		{
			"name":"Scene",
			"nodes":[
				0
			]
		}
	],
	"nodes":[
		{
			"mesh":0,
			"name":"level"
		}
	],
	"materials":[
		{
			"doubleSided":true,
			"name":"MetalPlate.001",
			"normalTexture":{
				"index":0
			},
			"pbrMetallicRoughness":{
				"baseColorTexture":{
					"index":1
				},
				"metallicFactor":0,
				"roughnessFactor":0.5
			}
		},
		{
			"doubleSided":true,
			"name":"Material.001",
			"normalTexture":{
				"index":2
			},
			"pbrMetallicRoughness":{
				"baseColorTexture":{
					"index":3
				},
				"metallicFactor":0,
				"roughnessFactor":0.5
			}
		}
	],
	"meshes":[
		{
			"name":"Cube.002",
			"primitives":[
				{
					"attributes":{
						"POSITION":0,
						"NORMAL":1,
						"TEXCOORD_0":2,
						"TANGENT":3
					},
					"indices":4,
					"material":0
				},
				{
					"attributes":{
						"POSITION":5,
						"NORMAL":6,
						"TEXCOORD_0":7,
						"TANGENT":8
					},
					"indices":9,
					"material":1
				}
			]
		}
	],
	"textures":[
		{
			"sampler":0,
			"source":0
		},
		{
			"sampler":0,
			"source":1
		},
		{
			"sampler":0,
			"source":2
		},
		{
			"sampler":0,
			"source":3
		}
	],
	"images":[
		{
			"mimeType":"image/png",
			"name":"metalfloor_bump",
			"uri":"metalfloor_bump.png"
		},
		{
			"mimeType":"image/png",
			"name":"metal_plate_floor",
			"uri":"metal_plate_floor.png"
		},
		{
			"mimeType":"image/png",
			"name":"metal_bump",
			"uri":"metal_bump.png"
		},
		{
			"mimeType":"image/png",
			"name":"metalStrips",
			"uri":"metalStrips.png"
		}
	],
	"accessors":[
		{
			"bufferView":0,
			"componentType":5126,
			"count":4,
			"max":[
				457.1150817871094,
				-0.09410376846790314,
				617.9306640625
			],
			"min":[
				-531.2828369140625,
				-0.09410376846790314,
				-617.9306640625
			],
			"type":"VEC3"
		},
		{
			"bufferView":1,
			"componentType":5126,
			"count":4,
			"type":"VEC3"
		},
		{
			"bufferView":2,
			"componentType":5126,
			"count":4,
			"type":"VEC2"
		},
		{
			"bufferView":3,
			"componentType":5126,
			"count":4,
			"type":"VEC4"
		},
		{
			"bufferView":4,
			"componentType":5123,
			"count":6,
			"type":"SCALAR"
		},
		{
			"bufferView":5,
			"componentType":5126,
			"count":1720,
			"max":[
				2083.30029296875,
				1099.028076171875,
				3537.41796875
			],
			"min":[
				-2179.85498046875,
				-181.56344604492188,
				-10.159602165222168
			],
			"type":"VEC3"
		},
		{
			"bufferView":6,
			"componentType":5126,
			"count":1720,
			"type":"VEC3"
		},
		{
			"bufferView":7,
			"componentType":5126,
			"count":1720,
			"type":"VEC2"
		},
		{
			"bufferView":8,
			"componentType":5126,
			"count":1720,
			"type":"VEC4"
		},
		{
			"bufferView":9,
			"componentType":5123,
			"count":2838,
			"type":"SCALAR"
		}
	],
	"bufferViews":[
		{
			"buffer":0,
			"byteLength":48,
			"byteOffset":0,
			"target":34962
		},
		{
			"buffer":0,
			"byteLength":48,
			"byteOffset":48,
			"target":34962
		},
		{
			"buffer":0,
			"byteLength":32,
			"byteOffset":96,
			"target":34962
		},
		{
			"buffer":0,
			"byteLength":64,
			"byteOffset":128,
			"target":34962
		},
		{
			"buffer":0,
			"byteLength":12,
			"byteOffset":192,
			"target":34963
		},
		{
			"buffer":0,
			"byteLength":20640,
			"byteOffset":204,
			"target":34962
		},
		{
			"buffer":0,
			"byteLength":20640,
			"byteOffset":20844,
			"target":34962
		},
		{
			"buffer":0,
			"byteLength":13760,
			"byteOffset":41484,
			"target":34962
		},
		{
			"buffer":0,
			"byteLength":27520,
			"byteOffset":55244,
			"target":34962
		},
		{
			"buffer":0,
			"byteLength":5676,
			"byteOffset":82764,
			"target":34963
		}
	],
	"samplers":[
		{
			"magFilter":9729,
			"minFilter":9987
		}
	],
	"buffers":[
		{
			"byteLength":88440,
			"uri":"level_big.bin"
		}
	]
}
