{
	"asset":{
		"generator":"Khronos glTF Blender I/O v4.0.44",
		"version":"2.0"
	},
	"extensionsUsed":[
		"KHR_materials_transmission",
		"KHR_materials_specular",
		"KHR_materials_ior"
	],
	"scene":0,
	"scenes":[
		{
			"name":"Scene",
			"nodes":[
				0
			]
		}
	],
	"nodes":[
		{
			"mesh":0,
			"name":"Pilot"
		}
	],
	"materials":[
		{
			"doubleSided":true,
			"extensions":{
				"KHR_materials_transmission":{
					"transmissionFactor":1
				},
				"KHR_materials_specular":{
					"specularFactor":0.699999988079071
				},
				"KHR_materials_ior":{
					"ior":1.4500000476837158
				}
			},
			"name":"wire_174186203",
			"pbrMetallicRoughness":{
				"baseColorFactor":[
					0.6823999881744385,
					0.7293999791145325,
					0.7961000204086304,
					1
				],
				"metallicFactor":0,
				"roughnessFactor":0.8211145401000977
			}
		},
		{
			"doubleSided":true,
			"extensions":{
				"KHR_materials_transmission":{
					"transmissionFactor":1
				},
				"KHR_materials_specular":{
					"specularFactor":0.699999988079071
				},
				"KHR_materials_ior":{
					"ior":1.4500000476837158
				}
			},
			"name":"wire_028089177",
			"pbrMetallicRoughness":{
				"baseColorFactor":[
					0.10980000346899033,
					0.3490000069141388,
					0.694100022315979,
					1
				],
				"metallicFactor":0,
				"roughnessFactor":0.8211145401000977
			}
		},
		{
			"alphaMode":"BLEND",
			"doubleSided":true,
			"extensions":{
				"KHR_materials_transmission":{
					"transmissionFactor":1
				},
				"KHR_materials_specular":{
					"specularFactor":0
				}
			},
			"name":"teeth_pilot",
			"pbrMetallicRoughness":{
				"baseColorTexture":{
					"index":0
				},
				"metallicFactor":0,
				"roughnessFactor":0.8999999761581421
			}
		},
		{
			"doubleSided":true,
			"extensions":{
				"KHR_materials_transmission":{
					"transmissionFactor":1
				},
				"KHR_materials_specular":{
					"specularFactor":0
				}
			},
			"name":"pilot_body",
			"normalTexture":{
				"index":1,
				"scale":0
			},
			"pbrMetallicRoughness":{
				"baseColorTexture":{
					"index":2
				},
				"metallicFactor":0,
				"roughnessFactor":0.8999999761581421
			}
		}
	],
	"meshes":[
		{
			"name":"Pilot",
			"primitives":[
				{
					"attributes":{
						"POSITION":0,
						"NORMAL":1,
						"TEXCOORD_0":2
					},
					"indices":3,
					"material":0
				},
				{
					"attributes":{
						"POSITION":4,
						"NORMAL":5,
						"TEXCOORD_0":6
					},
					"indices":7,
					"material":1
				},
				{
					"attributes":{
						"POSITION":8,
						"NORMAL":9,
						"TEXCOORD_0":10
					},
					"indices":11,
					"material":2
				},
				{
					"attributes":{
						"POSITION":12,
						"NORMAL":13,
						"TEXCOORD_0":14
					},
					"indices":15,
					"material":3
				}
			]
		}
	],
	"textures":[
		{
			"sampler":0,
			"source":0
		},
		{
			"sampler":0,
			"source":1
		},
		{
			"sampler":0,
			"source":2
		}
	],
	"images":[
		{
			"mimeType":"image/png",
			"name":"teeth_pilot",
			"uri":"teeth_pilot.png"
		},
		{
			"mimeType":"image/png",
			"name":"pilot_body multi",
			"uri":"pilot_body%20multi.png"
		},
		{
			"mimeType":"image/png",
			"name":"pilot_body",
			"uri":"pilot_body.png"
		}
	],
	"accessors":[
		{
			"bufferView":0,
			"componentType":5126,
			"count":135,
			"max":[
				0.06339716911315918,
				1.8858413696289062,
				0.4801129102706909
			],
			"min":[
				-0.0774238109588623,
				0.029232434928417206,
				-0.7566510438919067
			],
			"type":"VEC3"
		},
		{
			"bufferView":1,
			"componentType":5126,
			"count":135,
			"type":"VEC3"
		},
		{
			"bufferView":2,
			"componentType":5126,
			"count":135,
			"type":"VEC2"
		},
		{
			"bufferView":3,
			"componentType":5123,
			"count":630,
			"type":"SCALAR"
		},
		{
			"bufferView":4,
			"componentType":5126,
			"count":228,
			"max":[
				0.039090633392333984,
				1.9277992248535156,
				0.031698472797870636
			],
			"min":[
				-0.05359911918640137,
				1.43524169921875,
				-0.03169872611761093
			],
			"type":"VEC3"
		},
		{
			"bufferView":5,
			"componentType":5126,
			"count":228,
			"type":"VEC3"
		},
		{
			"bufferView":6,
			"componentType":5126,
			"count":228,
			"type":"VEC2"
		},
		{
			"bufferView":7,
			"componentType":5123,
			"count":1344,
			"type":"SCALAR"
		},
		{
			"bufferView":8,
			"componentType":5126,
			"count":24,
			"max":[
				0.10175561904907227,
				1.7661666870117188,
				0.025098785758018494
			],
			"min":[
				0.07016158103942871,
				1.7373733520507812,
				-0.02607537806034088
			],
			"type":"VEC3"
		},
		{
			"bufferView":9,
			"componentType":5126,
			"count":24,
			"type":"VEC3"
		},
		{
			"bufferView":10,
			"componentType":5126,
			"count":24,
			"type":"VEC2"
		},
		{
			"bufferView":11,
			"componentType":5123,
			"count":60,
			"type":"SCALAR"
		},
		{
			"bufferView":12,
			"componentType":5126,
			"count":1429,
			"max":[
				0.19372892379760742,
				1.9944534301757812,
				0.9262198209762573
			],
			"min":[
				-0.14605426788330078,
				-0.0034044256899505854,
				-0.9262162446975708
			],
			"type":"VEC3"
		},
		{
			"bufferView":13,
			"componentType":5126,
			"count":1429,
			"type":"VEC3"
		},
		{
			"bufferView":14,
			"componentType":5126,
			"count":1429,
			"type":"VEC2"
		},
		{
			"bufferView":15,
			"componentType":5123,
			"count":6048,
			"type":"SCALAR"
		}
	],
	"bufferViews":[
		{
			"buffer":0,
			"byteLength":1620,
			"byteOffset":0,
			"target":34962
		},
		{
			"buffer":0,
			"byteLength":1620,
			"byteOffset":1620,
			"target":34962
		},
		{
			"buffer":0,
			"byteLength":1080,
			"byteOffset":3240,
			"target":34962
		},
		{
			"buffer":0,
			"byteLength":1260,
			"byteOffset":4320,
			"target":34963
		},
		{
			"buffer":0,
			"byteLength":2736,
			"byteOffset":5580,
			"target":34962
		},
		{
			"buffer":0,
			"byteLength":2736,
			"byteOffset":8316,
			"target":34962
		},
		{
			"buffer":0,
			"byteLength":1824,
			"byteOffset":11052,
			"target":34962
		},
		{
			"buffer":0,
			"byteLength":2688,
			"byteOffset":12876,
			"target":34963
		},
		{
			"buffer":0,
			"byteLength":288,
			"byteOffset":15564,
			"target":34962
		},
		{
			"buffer":0,
			"byteLength":288,
			"byteOffset":15852,
			"target":34962
		},
		{
			"buffer":0,
			"byteLength":192,
			"byteOffset":16140,
			"target":34962
		},
		{
			"buffer":0,
			"byteLength":120,
			"byteOffset":16332,
			"target":34963
		},
		{
			"buffer":0,
			"byteLength":17148,
			"byteOffset":16452,
			"target":34962
		},
		{
			"buffer":0,
			"byteLength":17148,
			"byteOffset":33600,
			"target":34962
		},
		{
			"buffer":0,
			"byteLength":11432,
			"byteOffset":50748,
			"target":34962
		},
		{
			"buffer":0,
			"byteLength":12096,
			"byteOffset":62180,
			"target":34963
		}
	],
	"samplers":[
		{
			"magFilter":9729,
			"minFilter":9987
		}
	],
	"buffers":[
		{
			"byteLength":74276,
			"uri":"pilot.bin"
		}
	]
}
